<svg xmlns="http://www.w3.org/2000/svg" viewBox="0 0 100 100">
  <rect x="46" y="4" width="8" height="16" rx="4" fill="#4A2F1C"/>
  <path d="M20 42
           C20 20, 34 10, 50 10
           C66 10, 80 20, 80 42
           C80 47, 73 49, 66 45
           C60 49, 54 45, 50 48
           C46 45, 40 49, 34 45
           C27 49, 20 47, 20 42
           Z" fill="#5C3A21"/>
  <circle cx="35" cy="27" r="2.4" fill="#3E2716"/>
  <circle cx="50" cy="21" r="2.4" fill="#3E2716"/>
  <circle cx="65" cy="27" r="2.4" fill="#3E2716"/>
  <circle cx="41" cy="36" r="2.2" fill="#3E2716"/>
  <circle cx="59" cy="36" r="2.2" fill="#3E2716"/>
  <path d="M22 43
           C17 60, 23 83, 50 93
           C77 83, 83 60, 78 43
           C78 43, 65 50, 50 50
           C35 50, 22 43, 22 43
           Z" fill="#C68642"/>
  <path d="M50 50 C60 50, 70 47, 78 43 C83 60, 77 83, 50 93 Z" fill="#A66A2E" opacity="0.55"/>
  <ellipse cx="37" cy="62" rx="6" ry="11" fill="#FFFFFF" opacity="0.22"/>
</svg>
